<svg id="图层_1" data-name="图层 1" xmlns="http://www.w3.org/2000/svg" viewBox="0 0 53 57.16"><defs><style>.cls-1{fill:none;stroke:#000;stroke-miterlimit:10;}</style></defs><title>lan-logo</title><rect style="stroke: #666" class="cls-1" x="0.5" y="4.66" width="52" height="52" rx="10"/><path fill="#333" d="M6.86,46.86H59.09v2.9H6.86ZM57.31,15.94s-39.21,7.65-48.67,0c-.57-.46-.52-2.39,0-2.9,5-5,28.16,0,28.16,0q4.52-5.44,9-11.7L48.61,2.9c-2.9,3.75-6,7.64-8.53,10.65M12.85,29.77h40.3V32.7H12.85ZM17.44,3.06l2.35-1.72Q23,4.86,27.45,10.17L24.93,12Q20.51,6.42,17.44,3.06Z" transform="translate(-6.5 -1.34)"/></svg>